<?xml version="1.0" encoding="UTF-8" standalone="no"?>
<!-- Created with Inkscape (http://www.inkscape.org/) -->

<svg
   width="1920"
   height="1080"
   viewBox="0 0 508 285.75001"
   version="1.1"
   id="svg1"
   xml:space="preserve"
   inkscape:version="1.3 (0e150ed6c4, 2023-07-21)"
   sodipodi:docname="drawing.svg"
   xmlns:inkscape="http://www.inkscape.org/namespaces/inkscape"
   xmlns:sodipodi="http://sodipodi.sourceforge.net/DTD/sodipodi-0.dtd"
   xmlns="http://www.w3.org/2000/svg"
   xmlns:svg="http://www.w3.org/2000/svg"><sodipodi:namedview
     id="namedview1"
     pagecolor="#ffffff"
     bordercolor="#000000"
     borderopacity="0.25"
     inkscape:showpageshadow="2"
     inkscape:pageopacity="0.0"
     inkscape:pagecheckerboard="true"
     inkscape:deskcolor="#d1d1d1"
     inkscape:document-units="mm"
     inkscape:zoom="0.51213161"
     inkscape:cx="969.47736"
     inkscape:cy="469.60585"
     inkscape:window-width="1920"
     inkscape:window-height="1009"
     inkscape:window-x="1912"
     inkscape:window-y="-8"
     inkscape:window-maximized="1"
     inkscape:current-layer="layer1"
     showgrid="false" /><defs
     id="defs1"><rect
       x="136.68362"
       y="220.64641"
       width="1622.6298"
       height="695.13382"
       id="rect3" /><rect
       x="206.97805"
       y="302.65658"
       width="1845.2288"
       height="677.56021"
       id="rect2" /><rect
       x="865.01202"
       y="322.18281"
       width="833.77005"
       height="249.93575"
       id="rect1" /></defs><g
     inkscape:label="Layer 1"
     inkscape:groupmode="layer"
     id="layer1"><text
       xml:space="preserve"
       transform="scale(0.26458333)"
       id="text1"
       style="font-family:Arial;-inkscape-font-specification:Arial;white-space:pre;shape-inside:url(#rect1);fill:#000000" /><text
       xml:space="preserve"
       transform="scale(0.26458333)"
       id="text2"
       style="fill:#000000;-inkscape-font-specification:Arial;font-family:Arial;white-space:pre;shape-inside:url(#rect2)" /><text
       xml:space="preserve"
       transform="scale(0.26458333)"
       id="text3"
       style="font-family:Arial;-inkscape-font-specification:Arial;white-space:pre;shape-inside:url(#rect3);fill:#000000"><tspan
         x="136.68359"
         y="1516.2825"
         id="tspan2"><tspan
           dx="0 444.66168 185.22144 444.66168 518.55493"
           style="font-size:666.667px;-inkscape-font-specification:'Arial, Normal'"
           id="tspan1">VISOR</tspan></tspan></text><path
       d="m 56.837349,104.08325 22.875415,67.73052 22.944316,-68.21283 q 1.79145,-5.374347 2.68717,-7.441402 0.89573,-2.135958 2.96278,-3.789602 2.06706,-1.722546 5.64995,-1.722546 2.61827,0 4.82313,1.309135 2.27376,1.309135 3.514,3.513994 1.30913,2.135958 1.30913,4.340817 0,1.515844 -0.41341,3.307284 -0.41341,1.72255 -1.03353,3.4451 -0.62011,1.65364 -1.24023,3.44509 l -24.460156,66.00797 q -1.309135,3.78961 -2.61827,7.2347 -1.309136,3.37619 -3.031682,5.99446 -1.722546,2.54937 -4.616424,4.20301 -2.824976,1.65365 -6.959087,1.65365 -4.134111,0 -7.027989,-1.65365 -2.824976,-1.58474 -4.616424,-4.20301 -1.722546,-2.68717 -3.031681,-6.06336 -1.309136,-3.37619 -2.618271,-7.1658 L 37.88934,110.56002 q -0.620117,-1.79144 -1.309135,-3.51399 -0.620117,-1.72255 -1.10243,-3.7207 -0.413411,-1.99815 -0.413411,-3.37619 0,-3.513995 2.824976,-6.407873 2.824976,-2.893877 7.096891,-2.893877 5.23654,0 7.372498,3.238387 2.204859,3.169485 4.47862,10.197473 z m 82.957831,78.54811 v -79.58164 q 0,-6.201164 2.82498,-9.301747 2.82497,-3.100583 7.30359,-3.100583 4.61643,0 7.4414,3.100583 2.89388,3.031681 2.89388,9.301747 v 79.58164 q 0,6.27007 -2.89388,9.37065 -2.82497,3.10059 -7.4414,3.10059 -4.40972,0 -7.30359,-3.10059 -2.82498,-3.16948 -2.82498,-9.37065 z M 259.8911,163.06324 q 0,9.16394 -4.75422,16.46754 -4.68533,7.30359 -13.78037,11.43771 -9.09505,4.13411 -21.56628,4.13411 -14.9517,0 -24.66687,-5.64995 -6.89018,-4.06521 -11.231,-10.8176 -4.27191,-6.82128 -4.27191,-13.22915 0,-3.7207 2.54937,-6.33897 2.61827,-2.68717 6.61457,-2.68717 3.23839,0 5.44325,2.06705 2.27376,2.06706 3.8585,6.13227 1.92926,4.82313 4.13411,8.06151 2.27377,3.23839 6.33898,5.37435 4.0652,2.06705 10.67978,2.06705 9.09505,0 14.745,-4.20301 5.71885,-4.27191 5.71885,-10.61088 0,-5.02984 -3.10058,-8.13042 -3.03168,-3.16949 -7.92371,-4.82313 -4.82313,-1.65365 -12.95355,-3.514 -10.88649,-2.54937 -18.25899,-5.92556 -7.3036,-3.44509 -11.64442,-9.30175 -4.27191,-5.92556 -4.27191,-14.67609 0,-8.33713 4.54752,-14.8139 4.54752,-6.476773 13.16026,-9.921866 8.61273,-3.513994 20.25714,-3.513994 9.30175,0 16.05413,2.342663 6.82128,2.273761 11.2999,6.132264 4.47863,3.789603 6.54568,7.992613 2.06706,4.20302 2.06706,8.19932 0,3.6518 -2.61827,6.61458 -2.54937,2.89388 -6.40788,2.89388 -3.51399,0 -5.37434,-1.72255 -1.79145,-1.79145 -3.92741,-5.78775 -2.75607,-5.71886 -6.61457,-8.88834 -3.85851,-3.23839 -12.40234,-3.23839 -7.92371,0 -12.81574,3.51399 -4.82313,3.4451 -4.82313,8.33713 0,3.03168 1.65364,5.23654 1.65365,2.20486 4.54753,3.7896 2.89387,1.58474 5.85665,2.48047 2.96278,0.89572 9.78407,2.61827 8.54383,1.99815 15.43401,4.40972 6.95909,2.41156 11.78222,5.85665 4.89203,3.4451 7.5792,8.75054 2.75607,5.23654 2.75607,12.88465 z m 61.80497,-72.41585 q 15.70962,0 26.94062,6.407872 11.29991,6.338968 17.08766,18.121188 5.78776,11.71331 5.78776,27.56074 0,11.71331 -3.16949,21.29067 -3.16948,9.57736 -9.50845,16.60535 -6.33897,7.02799 -15.57182,10.74869 -9.23285,3.7207 -21.15287,3.7207 -11.85112,0 -21.22177,-3.7896 -9.37065,-3.85851 -15.64072,-10.8176 -6.27007,-6.95908 -9.50845,-16.74315 -3.16949,-9.78406 -3.16949,-21.15286 0,-11.64442 3.30729,-21.35958 3.37619,-9.71516 9.71516,-16.53644 6.33897,-6.821286 15.43401,-10.404182 9.09505,-3.651798 20.67056,-3.651798 z m 29.07658,51.952 q 0,-11.0932 -3.58289,-19.22362 -3.5829,-8.13042 -10.26638,-12.26453 -6.61458,-4.20301 -15.22731,-4.20301 -6.13226,0 -11.36881,2.34266 -5.16763,2.27376 -8.95724,6.68348 -3.7207,4.40972 -5.92556,11.2999 -2.13595,6.82129 -2.13595,15.36512 0,8.61273 2.13595,15.57181 2.20486,6.95909 6.13227,11.57552 3.99631,4.54752 9.09504,6.82128 5.16764,2.27376 11.29991,2.27376 7.85481,0 14.40048,-3.92741 6.61458,-3.9274 10.47309,-12.12672 3.9274,-8.19932 3.9274,-20.18824 z m 65.73237,7.5792 h -7.16579 v 32.45277 q 0,6.40787 -2.82498,9.43956 -2.82498,3.03168 -7.3725,3.03168 -4.89203,0 -7.5792,-3.16949 -2.68717,-3.16948 -2.68717,-9.30175 v -77.72129 q 0,-6.614575 2.96278,-9.577354 2.96278,-2.96278 9.57735,-2.96278 h 33.2796 q 6.89018,0 11.78221,0.620117 4.89204,0.551214 8.81944,2.342663 4.75423,1.998153 8.40603,5.718854 3.6518,3.7207 5.51215,8.68163 1.92925,4.89203 1.92925,10.40418 0,11.29991 -6.40787,18.05229 -6.33898,6.75238 -19.29252,9.57735 5.44324,2.89388 10.40418,8.54383 4.96093,5.64996 8.81943,12.05783 3.92741,6.33897 6.06337,11.50661 2.20486,5.09873 2.20486,7.02799 0,1.99815 -1.30914,3.9963 -1.24023,1.92926 -3.44509,3.03169 -2.20486,1.17133 -5.09874,1.17133 -3.44509,0 -5.78775,-1.65365 -2.34267,-1.58474 -4.06521,-4.06521 -1.65365,-2.48046 -4.54753,-7.30359 l -8.19932,-13.64257 q -4.40971,-7.5103 -7.92371,-11.43771 -3.44509,-3.9274 -7.02799,-5.37434 -3.58289,-1.44694 -9.02614,-1.44694 z m 11.71331,-42.44354 h -18.8791 v 27.76745 h 18.32789 q 7.3725,0 12.40233,-1.24024 5.02984,-1.30913 7.64811,-4.34081 2.68717,-3.10059 2.68717,-8.47493 0,-4.20302 -2.13596,-7.3725 -2.13595,-3.23839 -5.92556,-4.82313 -3.58289,-1.51584 -14.12488,-1.51584 z"
       id="text4"
       style="font-size:141.111px;font-family:'Arial Rounded MT Bold';-inkscape-font-specification:'Arial Rounded MT Bold, Normal';fill:none;stroke:#ffffff;stroke-width:3.665;stroke-linejoin:round;stroke-opacity:1"
       aria-label="VISOR" /></g></svg>
